<svg width="24" height="24" viewBox="0 0 24 24" fill="none" xmlns="http://www.w3.org/2000/svg">
<g clip-path="url(#clip0_28_1098)">
<path d="M21.5 23.75H20.75L20.75 8.75C20.75 8.65151 20.7306 8.55398 20.6929 8.46298C20.6552 8.37199 20.6 8.28931 20.5303 8.21966C20.4607 8.15002 20.378 8.09477 20.287 8.05708C20.196 8.01939 20.0985 8 20 8H14.75C14.6515 8 14.554 8.01939 14.463 8.05708C14.372 8.09477 14.2893 8.15002 14.2197 8.21966C14.15 8.28931 14.0948 8.37199 14.0571 8.46298C14.0194 8.55398 14 8.65151 14 8.75L14 12.5L9.5 12.5C9.40151 12.5 9.30398 12.5194 9.21298 12.5571C9.12199 12.5948 9.03931 12.65 8.96966 12.7197C8.90002 12.7893 8.84477 12.872 8.80708 12.963C8.76939 13.054 8.75 13.1515 8.75 13.25L8.75 17H4.25C4.15151 17 4.05398 17.0194 3.96298 17.0571C3.87199 17.0948 3.78931 17.15 3.71966 17.2197C3.65002 17.2893 3.59477 17.372 3.55708 17.463C3.51939 17.554 3.5 17.6515 3.5 17.75L3.5 23.75H2.75C2.55109 23.75 2.36032 23.829 2.21967 23.9697C2.07902 24.1103 2 24.3011 2 24.5C2 24.6989 2.07902 24.8897 2.21967 25.0303C2.36032 25.171 2.55109 25.25 2.75 25.25L21.5 25.25C21.6989 25.25 21.8897 25.171 22.0303 25.0303C22.171 24.8897 22.25 24.6989 22.25 24.5C22.25 24.3011 22.171 24.1103 22.0303 23.9697C21.8897 23.829 21.6989 23.75 21.5 23.75ZM10.25 14L14 14L14 23.75L10.25 23.75L10.25 14ZM5 18.5H8.75V23.75H5L5 18.5ZM15.5 23.75L15.5 9.5H19.25L19.25 23.75H15.5Z" fill="#565E6C"/>
</g>
<defs>
<clipPath id="clip0_28_1098">
<rect width="24" height="24" fill="white"/>
</clipPath>
</defs>
</svg>
