<svg xmlns="http://www.w3.org/2000/svg" width="27" height="27" viewBox="0 0 27 27" fill="none">
<line x1="2.5" y1="4" x2="2.5" y2="27" stroke="#ffffff" fill="#000000"/>
<line x1="3.5" y1="4" x2="3.5" y2="27" stroke="#ffffff" fill="#000000"/>
<line x1="25" y1="26.5" x2="2" y2="26.5" stroke="#ffffff" fill="#000000"/>
<line x1="25" y1="25.5" x2="2" y2="25.5" stroke="#ffffff" fill="#000000"/>
<line y1="4.5" x2="27" y2="4.5" stroke="#ffffff" fill="#000000"/>
<line y1="5.5" x2="27" y2="5.5" stroke="#ffffff" fill="#000000"/>
<line x1="6" y1="3.5" x2="21" y2="3.5" stroke="#ffffff" fill="#000000"/>
<line x1="6" y1="2.5" x2="21" y2="2.5" stroke="#ffffff" fill="#000000"/>
<line x1="10" y1="1.5" x2="17" y2="1.5" stroke="#ffffff" fill="#000000"/>
<line x1="10" y1="0.5" x2="17" y2="0.5" stroke="#ffffff" fill="#000000"/>
<line x1="24.5" y1="4" x2="24.5" y2="27" stroke="#ffffff" fill="#000000"/>
<line x1="23.5" y1="4" x2="23.5" y2="27" stroke="#ffffff" fill="#000000"/>
<line x1="13.5" y1="8" x2="13.5" y2="23" stroke="#ffffff" fill="#000000"/>
<line x1="17.5" y1="8" x2="17.5" y2="23" stroke="#ffffff" fill="#000000"/>
<line x1="9.5" y1="8" x2="9.5" y2="23" stroke="#ffffff" fill="#000000"/>
</svg>